# ProBuilder 4.2.3
# https://unity3d.com/unity/features/worldbuilding/probuilder
# 21/08/2020 3:53:03 PM

mtllib ./shelf.mtl
o shelf

g front
v -3.55 1.618181 -2.31703
v -5.55 1.618181 -2.31703
v -3.55 1.918181 -2.31703
v -5.55 1.918181 -2.31703
v -5.55 1.618181 -12.31703
v -5.55 1.918181 -12.31703
v -3.55 1.618181 -12.31703
v -3.55 1.918181 -12.31703

vt 0 0
vt -2 0
vt 0 0.3
vt -2 0.3
vt -10 0
vt -10 0.3
vt 2 0
vt 2 0.3
vt 10 0
vt 10 0.3
vt 0 -10
vt 2 -10
vt -2 -10

vn 0 0 1
vn -1 0 0
vn 0 0 -1
vn 1 0 0
vn 0 1 0
vn 0 -1 0

usemtl Wooden_Floor_2
f 3/3/1 4/4/1 2/2/1 1/1/1
f 4/3/2 6/6/2 5/5/2 2/1/2
f 6/8/3 8/3/3 7/1/3 5/7/3
f 8/10/4 3/3/4 1/1/4 7/9/4
f 8/11/5 6/12/5 4/7/5 3/1/5
f 1/1/6 2/2/6 5/13/6 7/11/6

g side
v -3.52 0.738181 -2.343907
v -3.62 0.738181 -2.343907
v -3.52 5.738181 -2.343907
v -3.62 5.738181 -2.343907
v -3.62 0.738181 -12.34391
v -3.62 5.738181 -12.34391
v -3.52 0.738181 -12.34391
v -3.52 5.738181 -12.34391

vt 0 0
vt -0.1 0
vt 0 5
vt -0.1 5
vt -10 0
vt -10 5
vt 0.1 0
vt 0.1 5
vt 10 0
vt 10 5
vt 0 -10
vt 0.1 -10
vt -0.1 -10

vn 0 0 1
vn -1 0 0
vn 0 0 -1
vn 1 0 0
vn 0 1 0
vn 0 -1 0

usemtl Wooden_Floor_2
f 11/16/7 12/17/7 10/15/7 9/14/7
f 12/16/8 14/19/8 13/18/8 10/14/8
f 14/21/9 16/16/9 15/14/9 13/20/9
f 16/23/10 11/16/10 9/14/10 15/22/10
f 16/24/11 14/25/11 12/20/11 11/14/11
f 9/14/12 10/15/12 13/26/12 15/24/12

g front (1)
v -3.53 5.528181 -2.31703
v -5.53 5.528181 -2.31703
v -3.53 5.828181 -2.31703
v -5.53 5.828181 -2.31703
v -5.53 5.528181 -12.31703
v -5.53 5.828181 -12.31703
v -3.53 5.528181 -12.31703
v -3.53 5.828181 -12.31703

vt 0 0
vt -2 0
vt 0 0.3
vt -2 0.3
vt -10 0
vt -10 0.3
vt 2 0
vt 2 0.3
vt 10 0
vt 10 0.3
vt 0 -10
vt 2 -10
vt -2 -10

vn 0 0 1
vn -1 0 0
vn 0 0 -1
vn 1 0 0
vn 0 1 0
vn 0 -1 0

usemtl Wooden_Floor_2
f 19/29/13 20/30/13 18/28/13 17/27/13
f 20/29/14 22/32/14 21/31/14 18/27/14
f 22/34/15 24/29/15 23/27/15 21/33/15
f 24/36/16 19/29/16 17/27/16 23/35/16
f 24/37/17 22/38/17 20/33/17 19/27/17
f 17/27/18 18/28/18 21/39/18 23/37/18

g side (1)
v -3.52 5.718181 -2.343907
v -3.62 5.718181 -2.343907
v -3.52 10.71818 -2.343907
v -3.62 10.71818 -2.343907
v -3.62 5.718181 -12.34391
v -3.62 10.71818 -12.34391
v -3.52 5.718181 -12.34391
v -3.52 10.71818 -12.34391

vt 0 0
vt -0.1 0
vt 0 5
vt -0.1 5
vt -10 0
vt -10 5
vt 0.1 0
vt 0.1 5
vt 10 0
vt 10 5
vt 0 -10
vt 0.1 -10
vt -0.1 -10

vn 0 0 1
vn -1 0 0
vn 0 0 -1
vn 1 0 0
vn 0 1 0
vn 0 -1 0

usemtl Wooden_Floor_2
f 27/42/19 28/43/19 26/41/19 25/40/19
f 28/42/20 30/45/20 29/44/20 26/40/20
f 30/47/21 32/42/21 31/40/21 29/46/21
f 32/49/22 27/42/22 25/40/22 31/48/22
f 32/50/23 30/51/23 28/46/23 27/40/23
f 25/40/24 26/41/24 29/52/24 31/50/24

g front (2)
v -3.55 9.41818 -2.31703
v -5.55 9.41818 -2.31703
v -3.55 9.718181 -2.31703
v -5.55 9.718181 -2.31703
v -5.55 9.41818 -12.31703
v -5.55 9.718181 -12.31703
v -3.55 9.41818 -12.31703
v -3.55 9.718181 -12.31703

vt 0 0
vt -2 0
vt 0 0.3
vt -2 0.3
vt -10 0
vt -10 0.3
vt 2 0
vt 2 0.3
vt 10 0
vt 10 0.3
vt 0 -10
vt 2 -10
vt -2 -10

vn 0 0 1
vn -1 0 0
vn 0 0 -1
vn 1 0 0
vn 0 1 0
vn 0 -1 0

usemtl Wooden_Floor_2
f 35/55/25 36/56/25 34/54/25 33/53/25
f 36/55/26 38/58/26 37/57/26 34/53/26
f 38/60/27 40/55/27 39/53/27 37/59/27
f 40/62/28 35/55/28 33/53/28 39/61/28
f 40/63/29 38/64/29 36/59/29 35/53/29
f 33/53/30 34/54/30 37/65/30 39/63/30

